# xmcd CD database file
#
# Track frame offsets:
#	150
#	21375
#	34378
#	52408
#	100191
#	123476
#	139072
#	168224
#	193794
#
# Disc length: 2878 seconds
#
# Revision: 0
# Processed by: cddbd v1.5.2PL0 Copyright (c) Steve Scherf et al.
# Submitted via: Feurio! 1.67 - http://www.feurio.com
#
DISCID=840b3c09
DTITLE=Luther Allison - Sept 27, 1985 Zeche Bochum - Rockpalast
DYEAR=1900
DGENRE=
TTITLE0=Here I Come
TTITLE1=Backtrack
TTITLE2=Should I Wait
TTITLE3=Show Me A Reason
TTITLE4=Life Is A Bitch
TTITLE5=Turn You Loose
TTITLE6=A Change Must Come
TTITLE7=Too Many Women
TTITLE8=Think I Need Help
EXTD=
EXTT0=
EXTT1=
EXTT2=
EXTT3=
EXTT4=
EXTT5=
EXTT6=
EXTT7=
EXTT8=
PLAYORDER=
